<svg width="24" height="24" viewBox="0 0 24 24" fill="none" xmlns="http://www.w3.org/2000/svg">
<path fill-rule="evenodd" clip-rule="evenodd" d="M18.8 2C19.2418 2 19.6 2.35818 19.6 2.8V22C19.6 22.4418 19.2418 22.8 18.8 22.8C18.3582 22.8 18 22.4418 18 22V2.8C18 2.35818 18.3582 2 18.8 2ZM15.6 5.2C16.0418 5.2 16.4 5.55818 16.4 6V22C16.4 22.4418 16.0418 22.8 15.6 22.8C15.1582 22.8 14.8 22.4418 14.8 22V6C14.8 5.55818 15.1582 5.2 15.6 5.2ZM22 5.2C22.4418 5.2 22.8 5.55818 22.8 6V22C22.8 22.4418 22.4418 22.8 22 22.8C21.5582 22.8 21.2 22.4418 21.2 22V6C21.2 5.55818 21.5582 5.2 22 5.2ZM9.2 6.8C9.64182 6.8 10 7.15818 10 7.6V22C10 22.4418 9.64182 22.8 9.2 22.8C8.75818 22.8 8.4 22.4418 8.4 22V7.6C8.4 7.15818 8.75818 6.8 9.2 6.8ZM2.8 8.4C3.24182 8.4 3.6 8.75818 3.6 9.2V22C3.6 22.4418 3.24182 22.8 2.8 22.8C2.35818 22.8 2 22.4418 2 22V9.2C2 8.75818 2.35818 8.4 2.8 8.4ZM12.4 8.4C12.8418 8.4 13.2 8.75818 13.2 9.2V22C13.2 22.4418 12.8418 22.8 12.4 22.8C11.9582 22.8 11.6 22.4418 11.6 22V9.2C11.6 8.75818 11.9582 8.4 12.4 8.4ZM6 11.6C6.44182 11.6 6.8 11.9582 6.8 12.4V22C6.8 22.4418 6.44182 22.8 6 22.8C5.55818 22.8 5.2 22.4418 5.2 22V12.4C5.2 11.9582 5.55818 11.6 6 11.6Z" fill="#FBFCFD"/>
</svg>
