<svg width="36" height="36" viewBox="0 0 36 36" fill="none" xmlns="http://www.w3.org/2000/svg">
<path fill-rule="evenodd" clip-rule="evenodd" d="M2.10474 17.9997C2.10474 9.22127 9.22109 2.10492 17.9995 2.10492C26.7779 2.10492 33.8944 9.22127 33.8944 17.9997C33.8944 26.778 26.7779 33.8945 17.9995 33.8945C9.22109 33.8945 2.10474 26.778 2.10474 17.9997ZM17.9995 4.38491C10.4803 4.38491 4.38473 10.4805 4.38473 17.9997C4.38473 21.5327 5.73048 24.7515 7.93735 27.1711C10.0577 23.8589 13.7715 21.66 18.0005 21.66C22.2288 21.66 25.9422 23.8583 28.0629 27.1699C30.2689 24.7505 31.6144 21.5321 31.6144 17.9997C31.6144 10.4805 25.5186 4.38491 17.9995 4.38491ZM26.3562 28.7489C24.6813 25.8708 21.5656 23.94 18.0005 23.94C14.4349 23.94 11.3189 25.8713 9.64418 28.7499C11.9507 30.5453 14.8503 31.6145 17.9995 31.6145C21.1493 31.6145 24.0493 30.5448 26.3562 28.7489ZM12.3599 15.6117C12.3599 12.4968 14.885 9.9717 17.9999 9.9717C21.1148 9.9717 23.6399 12.4968 23.6399 15.6117C23.6399 18.7266 21.1148 21.2517 17.9999 21.2517C14.885 21.2517 12.3599 18.7266 12.3599 15.6117ZM17.9999 12.2517C16.1442 12.2517 14.6399 13.756 14.6399 15.6117C14.6399 17.4674 16.1442 18.9717 17.9999 18.9717C19.8556 18.9717 21.3599 17.4674 21.3599 15.6117C21.3599 13.756 19.8556 12.2517 17.9999 12.2517Z" fill="#3E63DD"/>
</svg>
