<svg width="32" height="32" viewBox="0 0 32 32" fill="none" xmlns="http://www.w3.org/2000/svg">
<path fill-rule="evenodd" clip-rule="evenodd" d="M18.3494 2.6685C18.3494 3.74312 17.6273 4.6491 16.6419 4.92776C21.6447 5.25802 25.6001 9.42041 25.6001 14.5066V21.8667C25.6001 23.5868 25.6703 24.9758 27.1437 25.7126C27.5862 25.9339 27.8185 26.4303 27.7048 26.9118C27.5911 27.3933 27.1615 27.7333 26.6667 27.7333H17.4111C17.854 28.1242 18.1333 28.6961 18.1333 29.3333C18.1333 30.5116 17.1782 31.4667 16 31.4667C14.8218 31.4667 13.8667 30.5116 13.8667 29.3333C13.8667 28.6961 14.146 28.1242 14.5889 27.7333H5.33338C4.83868 27.7333 4.4089 27.3933 4.29523 26.9118C4.18159 26.4303 4.41387 25.9339 4.85634 25.7126C6.32984 24.9758 6.40005 23.5868 6.40005 21.8667V14.5066C6.40005 9.41945 10.357 5.25644 15.361 4.92757C14.3759 4.6487 13.6542 3.74289 13.6542 2.6685C13.6542 1.37195 14.7052 0.320892 16.0018 0.320892C17.2983 0.320892 18.3494 1.37195 18.3494 2.6685ZM16 7.03997C11.8763 7.03997 8.53338 10.3829 8.53338 14.5066V21.8667L8.53344 21.9753C8.53447 22.9254 8.53598 24.3379 7.89189 25.6H24.1082C23.4642 24.3379 23.4657 22.9254 23.4667 21.9753V21.8667V14.5066C23.4667 10.3829 20.1238 7.03997 16 7.03997Z" fill="#3E63DD"/>
</svg>
