<svg width="36" height="36" viewBox="0 0 36 36" fill="none" xmlns="http://www.w3.org/2000/svg">
<path fill-rule="evenodd" clip-rule="evenodd" d="M17.9999 2.51996C18.5964 2.51996 19.0799 3.00349 19.0799 3.59996V20.1926L24.4364 14.8363C24.858 14.4145 25.5418 14.4145 25.9635 14.8363C26.3854 15.2581 26.3854 15.9419 25.9635 16.3636L18.7636 23.5636C18.3418 23.9854 17.658 23.9854 17.2362 23.5636L10.0362 16.3636C9.61447 15.9419 9.61447 15.2581 10.0362 14.8363C10.458 14.4145 11.1418 14.4145 11.5636 14.8363L16.9199 20.1926V3.59996C16.9199 3.00349 17.4035 2.51996 17.9999 2.51996ZM5.9998 24C6.66254 24 7.1998 24.5373 7.1998 25.2V28.8C7.1998 30.1293 8.26936 31.2 9.59104 31.2H26.4027C27.7268 31.2 28.7998 30.1267 28.7998 28.8V25.2C28.7998 24.5373 29.3372 24 29.9998 24C30.6624 24 31.1998 24.5373 31.1998 25.2V28.8C31.1998 31.4498 29.0547 33.6 26.4027 33.6H9.59104C6.93626 33.6 4.7998 31.4472 4.7998 28.8V25.2C4.7998 24.5373 5.33707 24 5.9998 24Z" fill="#101D46"/>
</svg>
