<svg width="24" height="24" viewBox="0 0 24 24" fill="none" xmlns="http://www.w3.org/2000/svg">
<path fill-rule="evenodd" clip-rule="evenodd" d="M4.8002 1.6001C3.91653 1.6001 3.2002 2.31645 3.2002 3.2001V20.8001C3.2002 21.6838 3.91655 22.4001 4.8002 22.4001H16.8002C17.242 22.4001 17.6002 22.0419 17.6002 21.6001C17.6002 21.1583 17.242 20.8001 16.8002 20.8001H4.8002V3.2001H16.8002C17.242 3.2001 17.6002 2.84192 17.6002 2.4001C17.6002 1.95827 17.242 1.6001 16.8002 1.6001H4.8002ZM20.166 7.83442C19.8535 7.52199 19.3469 7.52199 19.0344 7.83442C18.7221 8.14683 18.7221 8.65336 19.0344 8.96578L21.2688 11.2001H10.4002C9.95837 11.2001 9.60019 11.5583 9.60019 12.0001C9.60019 12.4419 9.95837 12.8001 10.4002 12.8001H21.2688L19.0344 15.0344C18.7221 15.3468 18.7221 15.8534 19.0344 16.1659C19.3469 16.4782 19.8535 16.4782 20.166 16.1659L23.766 12.5658C24.0783 12.2534 24.0783 11.7468 23.766 11.4344L20.166 7.83442Z" fill="white"/>
</svg>
