<svg width="24" height="24" viewBox="0 0 24 24" fill="none" xmlns="http://www.w3.org/2000/svg">
<path fill-rule="evenodd" clip-rule="evenodd" d="M5.59995 3.20001C5.15813 3.20001 4.79995 3.55818 4.79995 4.00001V20C4.79995 20.4418 5.15813 20.8 5.59995 20.8H18.4C18.8417 20.8 19.2 20.4418 19.2 20V7.53138L14.8686 3.20001H5.59995ZM3.19995 4.00001C3.19995 2.67452 4.27446 1.60001 5.59995 1.60001H15.2C15.4121 1.60001 15.6156 1.68429 15.7656 1.83433L20.4484 6.51716C20.6735 6.74221 20.7999 7.04743 20.7999 7.36569V20C20.7999 21.3254 19.7254 22.4 18.4 22.4H5.59995C4.27446 22.4 3.19995 21.3254 3.19995 20V4.00001ZM7.59995 12C7.59995 11.5582 7.95813 11.2 8.39995 11.2H11.2V8.40001C11.2 7.95818 11.5581 7.60001 12 7.60001C12.4418 7.60001 12.8 7.95818 12.8 8.40001V11.2H15.6C16.0417 11.2 16.4 11.5582 16.4 12C16.4 12.4418 16.0417 12.8 15.6 12.8H12.8V15.6C12.8 16.0418 12.4418 16.4 12 16.4C11.5581 16.4 11.2 16.0418 11.2 15.6V12.8H8.39995C7.95813 12.8 7.59995 12.4418 7.59995 12Z" fill="#067A6F"/>
</svg>
