<svg width="22" height="22" viewBox="0 0 22 22" fill="none" xmlns="http://www.w3.org/2000/svg">
<path fill-rule="evenodd" clip-rule="evenodd" d="M21.5601 11.25C21.5601 10.47 21.4901 9.72 21.3601 9H11V13.255H16.92C16.665 14.63 15.89 15.795 14.725 16.575V19.335H18.28C20.3601 17.42 21.5601 14.6 21.5601 11.25Z" fill="#4285F4"/>
<path fill-rule="evenodd" clip-rule="evenodd" d="M11.0002 22.0001C13.9702 22.0001 16.4602 21.0151 18.2802 19.3351L14.7252 16.5751C13.7402 17.2351 12.4802 17.6251 11.0002 17.6251C8.13516 17.6251 5.71016 15.6901 4.84516 13.0901H1.17017V15.9401C2.98016 19.5351 6.70016 22.0001 11.0002 22.0001Z" fill="#34A853"/>
<path fill-rule="evenodd" clip-rule="evenodd" d="M4.84497 13.0901C4.62497 12.4301 4.49997 11.7251 4.49997 11.0001C4.49997 10.2751 4.62497 9.57007 4.84497 8.91006V6.06006H1.16999C0.424997 7.54506 0 9.22506 0 11.0001C0 12.7751 0.424997 14.4551 1.16999 15.9401L4.84497 13.0901Z" fill="#FBBC05"/>
<path fill-rule="evenodd" clip-rule="evenodd" d="M11.0001 4.37501C12.6151 4.37501 14.0651 4.93001 15.2051 6.02001L18.3601 2.86501C16.4551 1.09 13.9651 0 11.0001 0C6.70015 0 2.98016 2.46501 1.17017 6.06001L4.84515 8.91002C5.71015 6.31001 8.13514 4.37501 11.0001 4.37501Z" fill="#EA4335"/>
</svg>
