<svg width="24" height="24" viewBox="0 0 24 24" fill="none" xmlns="http://www.w3.org/2000/svg">
<path fill-rule="evenodd" clip-rule="evenodd" d="M11.2 3.6H2.4C1.95818 3.6 1.6 3.95818 1.6 4.4V11.6H11.2V3.6ZM12.8 3.6V11.6H22.4V4.4C22.4 3.95818 22.0418 3.6 21.6 3.6H12.8ZM11.2 13.2H1.6V20.4C1.6 20.8418 1.95818 21.2 2.4 21.2H11.2V13.2ZM12.8 21.2V13.2H22.4V20.4C22.4 20.8418 22.0418 21.2 21.6 21.2H12.8ZM2.4 2C1.07452 2 0 3.07451 0 4.4V20.4C0 21.7254 1.07452 22.8 2.4 22.8H21.6C22.9254 22.8 24 21.7254 24 20.4V4.4C24 3.07451 22.9254 2 21.6 2H2.4Z" fill="#FBFCFD"/>
</svg>
