<svg width="195" height="25" viewBox="0 0 195 25" fill="none" xmlns="http://www.w3.org/2000/svg">
<path d="M23.3125 17.5938C23.3125 18.5208 23.1354 19.3958 22.7812 20.2188C22.4375 21.0312 21.9583 21.7448 21.3438 22.3594C20.7396 22.9635 20.026 23.4427 19.2031 23.7969C18.3906 24.1406 17.5208 24.3125 16.5938 24.3125C15.7604 24.3125 14.9583 24.1667 14.1875 23.875C13.4271 23.5833 12.7396 23.1562 12.125 22.5938C11.5104 23.1562 10.8177 23.5833 10.0469 23.875C9.27604 24.1667 8.47396 24.3125 7.64062 24.3125C6.71354 24.3125 5.83854 24.1406 5.01562 23.7969C4.20312 23.4427 3.48958 22.9635 2.875 22.3594C2.27083 21.7448 1.79167 21.0312 1.4375 20.2188C1.09375 19.3958 0.921875 18.5208 0.921875 17.5938V1.59375H5.40625V17.5938C5.40625 17.9062 5.46354 18.2031 5.57812 18.4844C5.69271 18.7552 5.84896 18.9948 6.04688 19.2031C6.25521 19.401 6.49479 19.5573 6.76562 19.6719C7.03646 19.7865 7.32812 19.8438 7.64062 19.8438C7.95312 19.8438 8.24479 19.7865 8.51562 19.6719C8.78646 19.5573 9.02083 19.401 9.21875 19.2031C9.42708 18.9948 9.58854 18.7552 9.70312 18.4844C9.81771 18.2031 9.875 17.9062 9.875 17.5938V1.59375H14.3594V17.5938C14.3594 17.9062 14.4167 18.2031 14.5312 18.4844C14.6458 18.7552 14.8021 18.9948 15 19.2031C15.2083 19.401 15.4479 19.5573 15.7188 19.6719C15.9896 19.7865 16.2812 19.8438 16.5938 19.8438C16.9062 19.8438 17.1979 19.7865 17.4688 19.6719C17.7396 19.5573 17.974 19.401 18.1719 19.2031C18.3802 18.9948 18.5417 18.7552 18.6562 18.4844C18.7812 18.2031 18.8438 17.9062 18.8438 17.5938V1.59375H23.3125V17.5938ZM33.3125 19.9062C33.4792 19.9583 33.6458 19.9948 33.8125 20.0156C33.9792 20.026 34.1458 20.0312 34.3125 20.0312C34.7292 20.0312 35.1302 19.974 35.5156 19.8594C35.901 19.7448 36.2604 19.5833 36.5938 19.375C36.9375 19.1562 37.2396 18.8958 37.5 18.5938C37.7708 18.2812 37.9896 17.9375 38.1562 17.5625L41.2812 20.7031C40.8854 21.2656 40.4271 21.7708 39.9062 22.2188C39.3958 22.6667 38.8385 23.0469 38.2344 23.3594C37.6406 23.6719 37.0104 23.9062 36.3438 24.0625C35.6875 24.2292 35.0104 24.3125 34.3125 24.3125C33.1354 24.3125 32.026 24.0938 30.9844 23.6562C29.9531 23.2188 29.0469 22.6094 28.2656 21.8281C27.4948 21.0469 26.8854 20.1198 26.4375 19.0469C25.9896 17.9635 25.7656 16.776 25.7656 15.4844C25.7656 14.1615 25.9896 12.9531 26.4375 11.8594C26.8854 10.7656 27.4948 9.83333 28.2656 9.0625C29.0469 8.29167 29.9531 7.69271 30.9844 7.26562C32.026 6.83854 33.1354 6.625 34.3125 6.625C35.0104 6.625 35.6927 6.70833 36.3594 6.875C37.026 7.04167 37.6562 7.28125 38.25 7.59375C38.8542 7.90625 39.4167 8.29167 39.9375 8.75C40.4583 9.19792 40.9167 9.70312 41.3125 10.2656L33.3125 19.9062ZM35.5 11.1094C35.3021 11.0365 35.1042 10.9896 34.9062 10.9688C34.7188 10.9479 34.5208 10.9375 34.3125 10.9375C33.7292 10.9375 33.1771 11.0469 32.6562 11.2656C32.1458 11.474 31.6979 11.776 31.3125 12.1719C30.9375 12.5677 30.6406 13.0469 30.4219 13.6094C30.2031 14.1615 30.0938 14.7865 30.0938 15.4844C30.0938 15.6406 30.099 15.8177 30.1094 16.0156C30.1302 16.2135 30.1562 16.4167 30.1875 16.625C30.2292 16.8229 30.276 17.0156 30.3281 17.2031C30.3802 17.3906 30.4479 17.5573 30.5312 17.7031L35.5 11.1094ZM59.5469 24H58.5156L56.8594 21.7031C56.4531 22.0677 56.0208 22.4115 55.5625 22.7344C55.1146 23.0469 54.6406 23.3229 54.1406 23.5625C53.6406 23.7917 53.125 23.974 52.5938 24.1094C52.0729 24.2448 51.5417 24.3125 51 24.3125C49.8229 24.3125 48.7135 24.1146 47.6719 23.7188C46.6406 23.3229 45.7344 22.75 44.9531 22C44.1823 21.2396 43.5729 20.3125 43.125 19.2188C42.6771 18.125 42.4531 16.8802 42.4531 15.4844C42.4531 14.1823 42.6771 12.9896 43.125 11.9062C43.5729 10.8125 44.1823 9.875 44.9531 9.09375C45.7344 8.3125 46.6406 7.70833 47.6719 7.28125C48.7135 6.84375 49.8229 6.625 51 6.625C51.5417 6.625 52.0781 6.69271 52.6094 6.82812C53.1406 6.96354 53.6562 7.15104 54.1562 7.39062C54.6562 7.63021 55.1302 7.91146 55.5781 8.23438C56.0365 8.55729 56.4635 8.90625 56.8594 9.28125L58.5156 7.29688H59.5469V24ZM55.25 15.4844C55.25 14.901 55.1354 14.3385 54.9062 13.7969C54.6875 13.2448 54.3854 12.7604 54 12.3438C53.6146 11.9167 53.1615 11.5781 52.6406 11.3281C52.1302 11.0677 51.5833 10.9375 51 10.9375C50.4167 10.9375 49.8646 11.0365 49.3438 11.2344C48.8333 11.4323 48.3854 11.724 48 12.1094C47.625 12.4948 47.3281 12.974 47.1094 13.5469C46.8906 14.1094 46.7812 14.7552 46.7812 15.4844C46.7812 16.2135 46.8906 16.8646 47.1094 17.4375C47.3281 18 47.625 18.474 48 18.8594C48.3854 19.2448 48.8333 19.5365 49.3438 19.7344C49.8646 19.9323 50.4167 20.0312 51 20.0312C51.5833 20.0312 52.1302 19.9062 52.6406 19.6562C53.1615 19.3958 53.6146 19.0573 54 18.6406C54.3854 18.2135 54.6875 17.7292 54.9062 17.1875C55.1354 16.6354 55.25 16.0677 55.25 15.4844ZM71.2031 24C70.1719 24 69.2031 23.8073 68.2969 23.4219C67.3906 23.026 66.5938 22.4896 65.9062 21.8125C65.2292 21.125 64.6927 20.3281 64.2969 19.4219C63.9115 18.5156 63.7188 17.5469 63.7188 16.5156V11.5469H61.6406V7.29688H63.7188V0.609375H67.9688V7.29688H74.4375V11.5469H67.9688V16.5156C67.9688 16.9635 68.0521 17.3854 68.2188 17.7812C68.3854 18.1667 68.6146 18.5052 68.9062 18.7969C69.1979 19.0885 69.5417 19.3229 69.9375 19.5C70.3333 19.6667 70.7552 19.75 71.2031 19.75H74.4375V24H71.2031ZM81.1094 24H76.8438V0.609375H81.1094V8C81.6198 7.61458 82.1458 7.34375 82.6875 7.1875C83.2292 7.02083 83.7812 6.9375 84.3438 6.9375C85.375 6.9375 86.3438 7.13542 87.25 7.53125C88.1562 7.91667 88.9427 8.45312 89.6094 9.14062C90.2865 9.81771 90.8177 10.6146 91.2031 11.5312C91.599 12.4375 91.7969 13.4062 91.7969 14.4375V24H87.5V14.4375H87.5312C87.5312 14 87.4479 13.5885 87.2812 13.2031C87.1146 12.8073 86.8854 12.4635 86.5938 12.1719C86.3021 11.8802 85.9635 11.651 85.5781 11.4844C85.1927 11.3177 84.7812 11.2344 84.3438 11.2344C83.8958 11.2344 83.474 11.3177 83.0781 11.4844C82.6823 11.651 82.3385 11.8802 82.0469 12.1719C81.7552 12.4635 81.526 12.8073 81.3594 13.2031C81.1927 13.5885 81.1094 14 81.1094 14.4375V24ZM101.5 19.9062C101.667 19.9583 101.833 19.9948 102 20.0156C102.167 20.026 102.333 20.0312 102.5 20.0312C102.917 20.0312 103.318 19.974 103.703 19.8594C104.089 19.7448 104.448 19.5833 104.781 19.375C105.125 19.1562 105.427 18.8958 105.688 18.5938C105.958 18.2812 106.177 17.9375 106.344 17.5625L109.469 20.7031C109.073 21.2656 108.615 21.7708 108.094 22.2188C107.583 22.6667 107.026 23.0469 106.422 23.3594C105.828 23.6719 105.198 23.9062 104.531 24.0625C103.875 24.2292 103.198 24.3125 102.5 24.3125C101.323 24.3125 100.214 24.0938 99.1719 23.6562C98.1406 23.2188 97.2344 22.6094 96.4531 21.8281C95.6823 21.0469 95.0729 20.1198 94.625 19.0469C94.1771 17.9635 93.9531 16.776 93.9531 15.4844C93.9531 14.1615 94.1771 12.9531 94.625 11.8594C95.0729 10.7656 95.6823 9.83333 96.4531 9.0625C97.2344 8.29167 98.1406 7.69271 99.1719 7.26562C100.214 6.83854 101.323 6.625 102.5 6.625C103.198 6.625 103.88 6.70833 104.547 6.875C105.214 7.04167 105.844 7.28125 106.438 7.59375C107.042 7.90625 107.604 8.29167 108.125 8.75C108.646 9.19792 109.104 9.70312 109.5 10.2656L101.5 19.9062ZM103.688 11.1094C103.49 11.0365 103.292 10.9896 103.094 10.9688C102.906 10.9479 102.708 10.9375 102.5 10.9375C101.917 10.9375 101.365 11.0469 100.844 11.2656C100.333 11.474 99.8854 11.776 99.5 12.1719C99.125 12.5677 98.8281 13.0469 98.6094 13.6094C98.3906 14.1615 98.2812 14.7865 98.2812 15.4844C98.2812 15.6406 98.2865 15.8177 98.2969 16.0156C98.3177 16.2135 98.3438 16.4167 98.375 16.625C98.4167 16.8229 98.4635 17.0156 98.5156 17.2031C98.5677 17.3906 98.6354 17.5573 98.7188 17.7031L103.688 11.1094ZM115.922 24H111.656V7.26562H112.688L114.094 9.25C114.781 8.625 115.562 8.14583 116.438 7.8125C117.312 7.46875 118.219 7.29688 119.156 7.29688H122.922V11.5469H119.156C118.708 11.5469 118.286 11.6302 117.891 11.7969C117.495 11.9635 117.151 12.1927 116.859 12.4844C116.568 12.776 116.339 13.1198 116.172 13.5156C116.005 13.9115 115.922 14.3333 115.922 14.7812V24ZM147.516 15.0469V10.5625C147.516 9.94792 147.396 9.36979 147.156 8.82812C146.927 8.27604 146.609 7.79688 146.203 7.39062C145.797 6.98438 145.318 6.66667 144.766 6.4375C144.224 6.19792 143.646 6.07812 143.031 6.07812C142.417 6.07812 141.833 6.19792 141.281 6.4375C140.74 6.66667 140.266 6.98438 139.859 7.39062C139.453 7.79688 139.13 8.27604 138.891 8.82812C138.661 9.36979 138.547 9.94792 138.547 10.5625V15.0469H147.516ZM152 24H147.516V19.5156H138.547V24H134.078V10.5625C134.078 9.32292 134.312 8.16146 134.781 7.07812C135.25 5.98438 135.885 5.03125 136.688 4.21875C137.5 3.40625 138.448 2.76562 139.531 2.29688C140.625 1.82812 141.792 1.59375 143.031 1.59375C144.271 1.59375 145.432 1.82812 146.516 2.29688C147.609 2.76562 148.562 3.40625 149.375 4.21875C150.188 5.03125 150.828 5.98438 151.297 7.07812C151.766 8.16146 152 9.32292 152 10.5625V24ZM160.375 6.07812V15.0469H164.859C165.474 15.0469 166.052 14.9323 166.594 14.7031C167.135 14.4635 167.609 14.1406 168.016 13.7344C168.422 13.3281 168.74 12.8542 168.969 12.3125C169.208 11.7604 169.328 11.1771 169.328 10.5625C169.328 9.94792 169.208 9.36979 168.969 8.82812C168.74 8.27604 168.422 7.79688 168.016 7.39062C167.609 6.98438 167.135 6.66667 166.594 6.4375C166.052 6.19792 165.474 6.07812 164.859 6.07812H160.375ZM160.375 24H155.891V1.59375H164.859C165.682 1.59375 166.474 1.70312 167.234 1.92188C167.995 2.13021 168.703 2.43229 169.359 2.82812C170.026 3.21354 170.63 3.68229 171.172 4.23438C171.724 4.77604 172.193 5.38021 172.578 6.04688C172.974 6.71354 173.276 7.42708 173.484 8.1875C173.703 8.94792 173.812 9.73958 173.812 10.5625C173.812 11.7917 173.578 12.9531 173.109 14.0469C172.641 15.1302 172 16.0781 171.188 16.8906C170.375 17.7031 169.422 18.3438 168.328 18.8125C167.245 19.2812 166.089 19.5156 164.859 19.5156H160.375V24ZM180.938 6.07812V15.0469H185.422C186.036 15.0469 186.615 14.9323 187.156 14.7031C187.698 14.4635 188.172 14.1406 188.578 13.7344C188.984 13.3281 189.302 12.8542 189.531 12.3125C189.771 11.7604 189.891 11.1771 189.891 10.5625C189.891 9.94792 189.771 9.36979 189.531 8.82812C189.302 8.27604 188.984 7.79688 188.578 7.39062C188.172 6.98438 187.698 6.66667 187.156 6.4375C186.615 6.19792 186.036 6.07812 185.422 6.07812H180.938ZM180.938 24H176.453V1.59375H185.422C186.245 1.59375 187.036 1.70312 187.797 1.92188C188.557 2.13021 189.266 2.43229 189.922 2.82812C190.589 3.21354 191.193 3.68229 191.734 4.23438C192.286 4.77604 192.755 5.38021 193.141 6.04688C193.536 6.71354 193.839 7.42708 194.047 8.1875C194.266 8.94792 194.375 9.73958 194.375 10.5625C194.375 11.7917 194.141 12.9531 193.672 14.0469C193.203 15.1302 192.562 16.0781 191.75 16.8906C190.938 17.7031 189.984 18.3438 188.891 18.8125C187.807 19.2812 186.651 19.5156 185.422 19.5156H180.938V24Z" fill="#101D46"/>
</svg>
