<svg width="24" height="24" viewBox="0 0 24 24" fill="none" xmlns="http://www.w3.org/2000/svg">
<path fill-rule="evenodd" clip-rule="evenodd" d="M7.8 4.2V2.6H15.8V4.2H7.8ZM7.4 1C6.73726 1 6.2 1.53726 6.2 2.2V2.6H5.4C4.07451 2.6 3 3.67451 3 5V21C3 22.3254 4.07451 23.4 5.4 23.4H18.2C19.5254 23.4 20.6 22.3254 20.6 21V5C20.6 3.67451 19.5254 2.6 18.2 2.6H17.4V2.2C17.4 1.53726 16.8627 1 16.2 1H7.4ZM17.4 4.2V4.6C17.4 5.26274 16.8627 5.8 16.2 5.8H7.4C6.73726 5.8 6.2 5.26274 6.2 4.6V4.2H5.4C4.95818 4.2 4.6 4.55818 4.6 5V21C4.6 21.4418 4.95818 21.8 5.4 21.8H18.2C18.6418 21.8 19 21.4418 19 21V5C19 4.55818 18.6418 4.2 18.2 4.2H17.4Z" fill="#FBFCFD"/>
</svg>
