<svg width="12" height="12" viewBox="0 0 12 12" fill="none" xmlns="http://www.w3.org/2000/svg">
<path fill-rule="evenodd" clip-rule="evenodd" d="M8.66663 4.89167C8.66663 6.94115 6.99517 8.60257 4.9333 8.60257C2.87143 8.60257 1.19997 6.94115 1.19997 4.89167C1.19997 2.84219 2.87143 1.18077 4.9333 1.18077C6.99517 1.18077 8.66663 2.84219 8.66663 4.89167ZM7.9294 8.61943C7.10824 9.27244 6.06665 9.66283 4.9333 9.66283C2.28234 9.66283 0.133301 7.52671 0.133301 4.89167C0.133301 2.25664 2.28234 0.120514 4.9333 0.120514C7.58427 0.120514 9.7333 2.25664 9.7333 4.89167C9.7333 6.01821 9.34055 7.05355 8.68359 7.86977L11.7105 10.8783C11.9187 11.0854 11.9187 11.4211 11.7105 11.6281C11.5022 11.8351 11.1644 11.8351 10.9561 11.6281L7.9294 8.61943Z" fill="#101D46"/>
</svg>
