<svg width="24" height="24" viewBox="0 0 24 24" fill="none" xmlns="http://www.w3.org/2000/svg">
<path fill-rule="evenodd" clip-rule="evenodd" d="M11.311 1C10.6734 1 10.1208 1.44138 9.9798 2.06318L9.59748 3.74958C8.98887 3.92657 8.40827 4.16896 7.86391 4.46845L6.40097 3.54625C5.86162 3.20626 5.15874 3.28493 4.7079 3.73575L3.73461 4.70905C3.28379 5.15988 3.2051 5.86276 3.54511 6.40211L4.46765 7.86558C4.1684 8.40978 3.92624 8.9902 3.74942 9.59861L2.06317 9.98089C1.44138 10.1219 1 10.6745 1 11.3121V12.6885C1 13.3261 1.44138 13.8787 2.06317 14.0197L3.74961 14.402C3.92654 15.0106 4.16885 15.5911 4.46824 16.1355L3.54586 17.5987C3.20586 18.138 3.28455 18.8409 3.73537 19.2918L4.70867 20.2651C5.15949 20.7158 5.86237 20.7945 6.40173 20.4546L7.86503 19.5322C8.40906 19.8313 8.98928 20.0735 9.59748 20.2503L9.9798 21.9368C10.1208 22.5586 10.6734 23 11.311 23H12.6874C13.325 23 13.8776 22.5586 14.0186 21.9368L14.4008 20.251C15.0095 20.0742 15.5902 19.8318 16.1347 19.5325L17.5979 20.4549C18.1372 20.7949 18.8401 20.7162 19.291 20.2654L20.2643 19.2921C20.715 18.8412 20.7937 18.1383 20.4538 17.5991L19.5317 16.1363C19.8314 15.5917 20.0738 15.0108 20.2508 14.4019L21.9368 14.0197C22.5586 13.8787 23 13.3261 23 12.6885V11.3121C23 10.6745 22.5586 10.1219 21.9368 9.98089L20.251 9.59872C20.0742 8.98994 19.8318 8.40921 19.5323 7.86471L20.4544 6.40179C20.7945 5.86243 20.7158 5.15956 20.2649 4.70872L19.2916 3.73543C18.8409 3.28461 18.138 3.20592 17.5986 3.54592L16.1358 4.46806C15.591 4.1684 15.0099 3.92593 14.4008 3.74897L14.0186 2.06318C13.8776 1.44138 13.325 1 12.6874 1H11.311ZM7.85776 6.07811C8.70357 5.48537 9.68219 5.06921 10.7401 4.88317L11.311 2.36497H12.6874L13.2582 4.88281C14.3167 5.06862 15.2958 5.48477 16.1421 6.07768L18.3265 4.70061L19.2998 5.67389L17.9226 7.85845C18.5154 8.70442 18.9314 9.68322 19.1172 10.7413L21.635 11.3121V12.6885L19.1171 13.2593C18.9311 14.3176 18.5149 15.2965 17.922 16.1424L19.299 18.327L18.3257 19.3001L16.141 17.923C15.295 18.5155 14.3163 18.9314 13.2582 19.1172L12.6874 21.635H11.311L10.7401 19.1167C9.68259 18.9308 8.70434 18.5149 7.85877 17.9225L5.67385 19.2998L4.70054 18.3265L6.07784 16.1418C5.48524 15.2959 5.06921 14.3173 4.88329 13.2594L2.36496 12.6885V11.3121L4.88318 10.7412C5.06897 9.68346 5.48481 8.70499 6.07717 7.85922L4.69979 5.67423L5.67309 4.70094L7.85776 6.07811ZM14.4488 11.9998C14.4488 13.3522 13.3525 14.4485 12.0001 14.4485C10.6476 14.4485 9.55128 13.3522 9.55128 11.9998C9.55128 10.6474 10.6476 9.55099 12.0001 9.55099C13.3525 9.55099 14.4488 10.6474 14.4488 11.9998ZM15.8941 11.9998C15.8941 14.1504 14.1507 15.8938 12.0001 15.8938C9.84944 15.8938 8.10602 14.1504 8.10602 11.9998C8.10602 9.84917 9.84944 8.10573 12.0001 8.10573C14.1507 8.10573 15.8941 9.84917 15.8941 11.9998Z" fill="#FBFCFD"/>
</svg>
