<svg width="45" height="24" viewBox="0 0 45 24" fill="none" xmlns="http://www.w3.org/2000/svg">
<path d="M23.3125 16.5938C23.3125 17.5208 23.1354 18.3958 22.7812 19.2188C22.4375 20.0312 21.9583 20.7448 21.3438 21.3594C20.7396 21.9635 20.026 22.4427 19.2031 22.7969C18.3906 23.1406 17.5208 23.3125 16.5938 23.3125C15.7604 23.3125 14.9583 23.1667 14.1875 22.875C13.4271 22.5833 12.7396 22.1562 12.125 21.5938C11.5104 22.1562 10.8177 22.5833 10.0469 22.875C9.27604 23.1667 8.47396 23.3125 7.64062 23.3125C6.71354 23.3125 5.83854 23.1406 5.01562 22.7969C4.20312 22.4427 3.48958 21.9635 2.875 21.3594C2.27083 20.7448 1.79167 20.0312 1.4375 19.2188C1.09375 18.3958 0.921875 17.5208 0.921875 16.5938V0.59375H5.40625V16.5938C5.40625 16.9062 5.46354 17.2031 5.57812 17.4844C5.69271 17.7552 5.84896 17.9948 6.04688 18.2031C6.25521 18.401 6.49479 18.5573 6.76562 18.6719C7.03646 18.7865 7.32812 18.8438 7.64062 18.8438C7.95312 18.8438 8.24479 18.7865 8.51562 18.6719C8.78646 18.5573 9.02083 18.401 9.21875 18.2031C9.42708 17.9948 9.58854 17.7552 9.70312 17.4844C9.81771 17.2031 9.875 16.9062 9.875 16.5938V0.59375H14.3594V16.5938C14.3594 16.9062 14.4167 17.2031 14.5312 17.4844C14.6458 17.7552 14.8021 17.9948 15 18.2031C15.2083 18.401 15.4479 18.5573 15.7188 18.6719C15.9896 18.7865 16.2812 18.8438 16.5938 18.8438C16.9062 18.8438 17.1979 18.7865 17.4688 18.6719C17.7396 18.5573 17.974 18.401 18.1719 18.2031C18.3802 17.9948 18.5417 17.7552 18.6562 17.4844C18.7812 17.2031 18.8438 16.9062 18.8438 16.5938V0.59375H23.3125V16.5938ZM40.5156 14.0469V9.5625C40.5156 8.94792 40.3958 8.36979 40.1562 7.82812C39.9271 7.27604 39.6094 6.79688 39.2031 6.39062C38.7969 5.98438 38.3177 5.66667 37.7656 5.4375C37.224 5.19792 36.6458 5.07812 36.0312 5.07812C35.4167 5.07812 34.8333 5.19792 34.2812 5.4375C33.7396 5.66667 33.2656 5.98438 32.8594 6.39062C32.4531 6.79688 32.1302 7.27604 31.8906 7.82812C31.6615 8.36979 31.5469 8.94792 31.5469 9.5625V14.0469H40.5156ZM45 23H40.5156V18.5156H31.5469V23H27.0781V9.5625C27.0781 8.32292 27.3125 7.16146 27.7812 6.07812C28.25 4.98438 28.8854 4.03125 29.6875 3.21875C30.5 2.40625 31.4479 1.76562 32.5312 1.29688C33.625 0.828125 34.7917 0.59375 36.0312 0.59375C37.2708 0.59375 38.4323 0.828125 39.5156 1.29688C40.6094 1.76562 41.5625 2.40625 42.375 3.21875C43.1875 4.03125 43.8281 4.98438 44.2969 6.07812C44.7656 7.16146 45 8.32292 45 9.5625V23Z" fill="#101D46"/>
</svg>
