<svg width="15" height="15" viewBox="0 0 15 15" fill="none" xmlns="http://www.w3.org/2000/svg">
<path d="M10.3279 3.64549C10.4969 3.64549 10.6353 3.50717 10.6353 3.33811V2.40676C10.6353 2.2377 10.4969 2.09938 10.3279 2.09938C10.1588 2.09938 10.0205 2.2377 10.0205 2.40676V3.33811C10.0205 3.50717 10.1588 3.64549 10.3279 3.64549Z" fill="#3E63DD"/>
<path d="M12.8393 4.60143C12.9193 4.60143 12.9992 4.5707 13.0576 4.50922L13.6693 3.88832C13.7891 3.76844 13.7861 3.57479 13.6662 3.45492C13.5463 3.33504 13.3527 3.33811 13.2328 3.45799L12.6211 4.07889C12.5012 4.19877 12.5043 4.39242 12.6242 4.51229C12.6826 4.57069 12.7625 4.60143 12.8393 4.60143Z" fill="#3E63DD"/>
<path d="M13.0542 9.1998C12.9374 9.07992 12.7406 9.07685 12.6208 9.19672C12.5009 9.31353 12.4978 9.51025 12.6177 9.63012L13.2294 10.251C13.2878 10.3125 13.3677 10.3432 13.4476 10.3432C13.5275 10.3432 13.6044 10.3125 13.6628 10.2541C13.7826 10.1373 13.7857 9.94058 13.6658 9.8207L13.0542 9.1998Z" fill="#3E63DD"/>
<path d="M14.6926 6.23668H13.7766C13.6076 6.23668 13.4692 6.375 13.4692 6.54406C13.4692 6.71311 13.6076 6.85143 13.7766 6.85143H14.6926C14.8617 6.85143 15 6.71311 15 6.54406C15 6.375 14.8617 6.23668 14.6926 6.23668Z" fill="#3E63DD"/>
<path d="M7.59836 4.50922C7.65676 4.5707 7.73668 4.60143 7.8166 4.60143C7.89344 4.60143 7.97336 4.57377 8.03176 4.51229C8.15164 4.39549 8.15471 4.19877 8.03483 4.07889L7.42623 3.45799C7.30943 3.33811 7.1127 3.33504 6.99283 3.45492C6.87295 3.57172 6.86988 3.76844 6.98975 3.88832L7.59836 4.50922Z" fill="#3E63DD"/>
<path d="M11.0809 4.40778H11.0779C10.0113 4.07889 8.86168 4.57069 8.29303 5.55737C7.85656 5.37909 7.38012 5.27766 6.8791 5.27766C6.15061 5.27766 5.44672 5.48975 4.83811 5.89241C4.30943 6.24282 3.8791 6.71926 3.57787 7.28483C3.29508 7.20799 3.02152 7.18954 2.81865 7.18954C2.06557 7.18954 1.35861 7.48463 0.826844 8.01946C0.295082 8.5543 0 9.27049 0 10.0328C0 11.6127 1.26332 12.9006 2.81865 12.9006H6.8791C8.85246 12.9006 10.4754 11.3453 10.626 9.37192C11.1332 9.32274 11.6127 9.11065 11.9939 8.75717C12.4303 8.35758 12.7131 7.8043 12.793 7.20184C12.9744 5.96618 12.2551 4.78893 11.0809 4.40778ZM6.8791 12.2859H2.81865C1.60451 12.2859 0.614754 11.2746 0.614754 10.0328C0.614754 8.80327 1.60451 7.8043 2.81865 7.8043C3.11373 7.8043 3.39652 7.85655 3.61475 7.94877C3.76844 8.01331 3.94672 7.94262 4.01434 7.792C4.52766 6.63934 5.64959 5.89241 6.8791 5.89241C8.61271 5.89241 10.0205 7.32171 10.0205 9.07684C10.0205 10.8473 8.60963 12.2859 6.8791 12.2859ZM12.1814 7.11885C12.1814 7.12192 12.1814 7.12192 12.1814 7.12499C12.0707 7.98258 11.4191 8.64958 10.6199 8.75409C10.5154 7.52151 9.82992 6.45184 8.83709 5.83708C9.26742 5.11475 10.1127 4.75512 10.8904 4.9918C11.7818 5.28381 12.3227 6.17827 12.1814 7.11885Z" fill="#3E63DD"/>
</svg>
