<svg width="15" height="15" viewBox="0 0 15 15" fill="none" xmlns="http://www.w3.org/2000/svg">
<path d="M0.598633 0.593552V2.48789C3.83184 2.12373 8.53691 3.29883 10.8543 5.61328C8.3377 4.33008 3.68535 3.46875 0.598633 3.73828V6.21386C2.59111 9.62695 6.36309 7.43261 9.54473 6.5039C11.3318 6.16699 11.6746 7.08105 12.7146 7.38867C12.3777 6.78515 12.0584 6.2373 11.7537 5.73925C12.4363 5.44922 12.9197 4.77246 12.9197 3.98437C12.9197 2.93554 12.0643 2.08007 11.0154 2.08007C10.45 2.08007 9.94023 2.32998 9.58867 2.72461C7.87187 0.821774 6.61797 0.770212 4.97734 0.593552H0.598633V0.593552ZM10.951 2.58047C11.118 2.57841 11.2908 2.608 11.4695 2.67627C10.6258 2.79492 10.4676 4.53808 12.2605 4.22168C12.5682 4.16601 12.1551 5.09765 11.4842 5.30859C10.9129 4.40039 10.3914 3.67382 9.91094 3.09375C10.1775 2.79228 10.5379 2.58603 10.951 2.58047ZM12.6561 8.39355L12.4305 8.77148C12.4305 8.77148 12.0701 9.36914 11.7127 10.1426C11.3553 10.9189 10.9861 11.8652 10.9861 12.6562C10.9861 13.0869 11.2117 13.4883 11.5193 13.793C11.824 14.1006 12.2254 14.3262 12.6561 14.3262C13.0867 14.3262 13.4881 14.1006 13.7928 13.793C14.1004 13.4883 14.326 13.0869 14.326 12.6562C14.326 11.8652 13.9568 10.9189 13.5994 10.1426C13.242 9.36914 12.8816 8.77148 12.8816 8.77148L12.6561 8.39355ZM12.0672 10.6494C11.5809 12.0879 11.698 13.5498 13.7869 12.7588C13.7078 13.5264 12.5096 14.4258 11.6922 13.21C11.3377 12.6826 11.3201 11.7422 12.0672 10.6494Z" fill="#3E63DD"/>
</svg>
