<svg width="15" height="15" viewBox="0 0 15 15" fill="none" xmlns="http://www.w3.org/2000/svg">
<g clip-path="url(#clip0_279_302)">
<path d="M9.55409 2.31877C9.44217 2.16645 9.22786 2.13368 9.07549 2.24565C8.92312 2.35762 8.89039 2.57189 9.00232 2.72425C11.4935 6.11425 12.0165 8.36349 12.0165 9.65342C12.0165 10.9174 11.6389 12.0633 10.9532 12.88C10.1535 13.8324 8.99168 14.3154 7.49999 14.3154C4.16637 14.3154 2.98353 11.804 2.98353 9.65342C2.98353 7.26943 4.26634 4.94113 5.3425 3.40763C6.52283 1.72569 7.72115 0.60424 7.73302 0.593193C7.87156 0.464515 7.8795 0.247876 7.75082 0.109338C7.62214 -0.0291536 7.4055 -0.0371418 7.26701 0.0915362C7.21634 0.138598 6.01187 1.26456 4.7905 3.0022C3.65385 4.61937 2.29883 7.08598 2.29883 9.65337C2.29883 11.0713 2.74037 12.3739 3.54206 13.3212C4.47147 14.4195 5.84014 15.0001 7.49999 15.0001C9.17952 15.0001 10.5549 14.4192 11.4776 13.3202C12.2666 12.3804 12.7012 11.0782 12.7012 9.65342C12.7012 7.13076 10.9898 4.27241 9.55409 2.31877Z" fill="#3E63DD"/>
<path d="M9.05787 6.76237L4.71404 11.1062C4.58034 11.2399 4.58034 11.4567 4.71404 11.5903C4.78092 11.6572 4.86856 11.6906 4.95615 11.6906C5.04375 11.6906 5.13139 11.6572 5.19826 11.5903L9.54209 7.2465C9.67579 7.1128 9.67579 6.89602 9.54209 6.76237C9.4083 6.62867 9.19157 6.62867 9.05787 6.76237Z" fill="#3E63DD"/>
<path d="M8.76247 9.4899C8.15573 9.4899 7.66211 9.98352 7.66211 10.5903C7.66211 11.197 8.15573 11.6906 8.76247 11.6906C9.3692 11.6906 9.86283 11.197 9.86283 10.5903C9.86283 9.98352 9.3692 9.4899 8.76247 9.4899ZM8.76247 11.0059C8.53328 11.0059 8.34681 10.8194 8.34681 10.5903C8.34681 10.3611 8.53328 10.1746 8.76247 10.1746C8.99166 10.1746 9.17813 10.3611 9.17813 10.5903C9.17813 10.8194 8.99166 11.0059 8.76247 11.0059Z" fill="#3E63DD"/>
<path d="M5.71413 8.86286C6.32086 8.86286 6.81449 8.36923 6.81449 7.7625C6.81449 7.15576 6.32086 6.66214 5.71413 6.66214C5.10739 6.66214 4.61377 7.15576 4.61377 7.7625C4.61377 8.36923 5.10739 8.86286 5.71413 8.86286ZM5.71413 7.34679C5.94332 7.34679 6.12979 7.53326 6.12979 7.76245C6.12979 7.99164 5.94332 8.17811 5.71413 8.17811C5.48494 8.17811 5.29847 7.99164 5.29847 7.76245C5.29847 7.53326 5.48489 7.34679 5.71413 7.34679Z" fill="#3E63DD"/>
</g>
<defs>
<clipPath id="clip0_279_302">
<rect width="15" height="15" fill="white"/>
</clipPath>
</defs>
</svg>
