<svg width="15" height="15" viewBox="0 0 15 15" fill="none" xmlns="http://www.w3.org/2000/svg">
<path d="M1.10044 7.19381C1.73069 6.91829 2.50709 6.92789 3.17761 7.21968C4.36822 7.73684 6.84173 9.34672 7.46797 9.34672C8.11049 9.34672 10.7069 7.71363 12.0883 7.17807C12.6905 6.9439 13.3672 6.92416 13.9441 7.12393C14.4529 7.30023 14.7586 7.56721 14.932 7.83872C15.1464 8.17478 14.825 8.57699 14.3641 8.57699H14.2198C14.0081 8.57699 13.8262 8.47403 13.7173 8.32467C13.6629 8.24999 13.5752 8.17531 13.4325 8.12597C13.2005 8.04542 12.9156 8.05849 12.651 8.16118C11.5226 8.59912 8.5599 10.4338 7.46797 10.4338C6.38378 10.4338 3.54834 8.60979 2.5615 8.18118C2.27772 8.05743 1.96299 8.04782 1.71922 8.15424C1.62107 8.19718 1.55465 8.25346 1.50985 8.31107C1.38689 8.46923 1.18926 8.57699 0.961215 8.57699C0.491532 8.57699 0.184811 8.16705 0.401382 7.82379C0.556343 7.57814 0.781183 7.3333 1.10044 7.19381Z" fill="#3E63DD"/>
<path d="M14.4026 5.633H0.533428C0.238709 5.633 0 5.39429 0 5.09957C0 4.80486 0.238709 4.56615 0.533428 4.56615H14.4026C14.6973 4.56615 14.936 4.80486 14.936 5.09957C14.936 5.39403 14.6973 5.633 14.4026 5.633Z" fill="#3E63DD"/>
</svg>
