<svg width="15" height="15" viewBox="0 0 15 15" fill="none" xmlns="http://www.w3.org/2000/svg">
<path d="M14.3159 5.19137C13.9534 4.82527 13.4917 4.59185 12.9908 4.51658C12.995 4.45317 12.997 4.39003 12.997 4.32738C12.997 2.68126 11.6578 1.34202 10.0117 1.34202C9.57858 1.34202 9.15233 1.43599 8.76233 1.61575C8.23629 0.686768 7.24844 0.102097 6.16467 0.102097C4.76606 0.102097 3.55796 1.08439 3.25375 2.42605C1.4466 2.50216 0 3.99615 0 5.82167C0 7.69568 1.52462 9.22033 3.39867 9.22033H12.6346C13.9389 9.22033 15 8.15922 15 6.85496C15 6.2278 14.757 5.63701 14.3159 5.19137ZM12.6346 8.62272H3.39867C1.85414 8.62272 0.59761 7.36616 0.59761 5.82167C0.59761 4.27718 1.85414 3.02061 3.39867 3.02061C3.4304 3.02061 3.46195 3.02133 3.49345 3.02241C3.49363 3.02241 3.4938 3.02241 3.49401 3.02241C3.84442 3.034 4.18401 3.10942 4.50469 3.24738C4.54318 3.26393 4.58322 3.27176 4.62263 3.27176C4.73842 3.27176 4.84862 3.20405 4.89726 3.09098C4.96249 2.9394 4.89245 2.76364 4.74087 2.69841C4.45882 2.57707 4.16489 2.4957 3.86286 2.45456C4.14299 1.43509 5.08237 0.699706 6.1647 0.699706C7.11801 0.699706 7.9786 1.26546 8.35715 2.14102C8.35787 2.14266 8.35879 2.14419 8.35954 2.14583C8.48746 2.44353 8.55245 2.76026 8.55245 3.08743C8.55245 3.25246 8.68622 3.38623 8.85125 3.38623C9.01628 3.38623 9.15006 3.25246 9.15006 3.08743C9.15006 2.7698 9.10082 2.45988 9.00386 2.16259C9.31799 2.01624 9.662 1.93963 10.0117 1.93963C11.3283 1.93963 12.3994 3.01075 12.3994 4.32738C12.3994 4.3851 12.3968 4.44352 12.3924 4.50215C11.9495 4.54667 11.534 4.71289 11.1789 4.99048C11.0489 5.09214 11.0259 5.27993 11.1275 5.40994C11.1865 5.4853 11.2743 5.52472 11.3631 5.52472C11.4275 5.52472 11.4923 5.50401 11.547 5.46131C11.86 5.21656 12.2361 5.08718 12.6347 5.08718C12.6368 5.08718 12.6389 5.08691 12.6411 5.08685C12.6456 5.08712 12.65 5.08768 12.6546 5.08774C13.6183 5.09844 14.4024 5.8912 14.4024 6.85496C14.4024 7.8297 13.6094 8.62272 12.6346 8.62272Z" fill="#3E63DD"/>
<path d="M11.703 10.0391C11.4278 10.0847 10.5075 10.2564 10.2142 10.5497C10.0377 10.7263 9.94043 10.961 9.94043 11.2106C9.94043 11.4603 10.0377 11.695 10.2142 11.8715C10.3907 12.0481 10.6254 12.1453 10.8751 12.1453C11.1248 12.1453 11.3595 12.0481 11.536 11.8715C11.8294 11.5782 12.001 10.6578 12.0467 10.3827C12.0625 10.2876 12.0313 10.1907 11.9632 10.1225C11.895 10.0544 11.7981 10.0234 11.703 10.0391ZM11.1134 11.449C11.0498 11.5126 10.9651 11.5477 10.8751 11.5477C10.7851 11.5477 10.7004 11.5126 10.6368 11.449C10.5731 11.3853 10.538 11.3007 10.538 11.2106C10.538 11.1206 10.5731 11.036 10.6367 10.9723C10.7075 10.9028 11.0108 10.7997 11.3706 10.7151C11.286 11.0749 11.1829 11.3782 11.1134 11.449Z" fill="#3E63DD"/>
<path d="M7.86308 10.3828C7.87886 10.2877 7.84775 10.1908 7.7796 10.1226C7.71141 10.0544 7.61456 10.0234 7.5194 10.0391C7.24429 10.0847 6.32394 10.2564 6.0306 10.5497C5.85407 10.7262 5.75684 10.961 5.75684 11.2106C5.75684 11.4603 5.85407 11.695 6.0306 11.8716C6.21281 12.0538 6.45215 12.1449 6.69153 12.1449C6.9309 12.1449 7.17024 12.0538 7.35245 11.8716C7.64576 11.5782 7.81742 10.6579 7.86308 10.3828ZM6.92982 11.449C6.79841 11.5804 6.58458 11.5804 6.45317 11.449C6.3895 11.3853 6.35445 11.3007 6.35445 11.2106C6.35445 11.1206 6.3895 11.036 6.45314 10.9723C6.52387 10.9028 6.82724 10.7997 7.18704 10.7151C7.10241 11.075 6.99933 11.3783 6.92982 11.449Z" fill="#3E63DD"/>
<path d="M3.67998 10.3828C3.69575 10.2877 3.66465 10.1908 3.59649 10.1226C3.52833 10.0544 3.43143 10.0234 3.33629 10.0391C3.06118 10.0847 2.14083 10.2564 1.8475 10.5497C1.67096 10.7262 1.57373 10.961 1.57373 11.2106C1.57373 11.4603 1.67096 11.695 1.8475 11.8716C2.02971 12.0538 2.26905 12.1449 2.50842 12.1449C2.74779 12.1449 2.98714 12.0538 3.16935 11.8716C3.46265 11.5782 3.63435 10.6579 3.67998 10.3828ZM2.74675 11.449C2.61536 11.5804 2.40148 11.5804 2.2701 11.449C2.20642 11.3853 2.17137 11.3007 2.17137 11.2106C2.17137 11.1206 2.20642 11.036 2.27007 10.9723C2.34079 10.9028 2.64417 10.7997 3.00396 10.7151C2.91934 11.0749 2.81628 11.3782 2.74675 11.449Z" fill="#3E63DD"/>
<path d="M8.95052 12.7917C8.67541 12.8373 7.75506 13.009 7.46175 13.3023C7.28522 13.4788 7.18799 13.7135 7.18799 13.9632C7.18799 14.2129 7.28522 14.4476 7.46175 14.6241C7.63829 14.8007 7.873 14.8979 8.12268 14.8979C8.37233 14.8979 8.60704 14.8007 8.78361 14.6241C9.07691 14.3308 9.24861 13.4104 9.29423 13.1353C9.31001 13.0402 9.2789 12.9433 9.21075 12.8751C9.1425 12.8069 9.04554 12.7759 8.95052 12.7917ZM8.36098 14.2016C8.29733 14.2652 8.21268 14.3003 8.12265 14.3003C8.03262 14.3003 7.94797 14.2652 7.88432 14.2016C7.82065 14.1379 7.7856 14.0533 7.7856 13.9632C7.7856 13.8732 7.82065 13.7885 7.88429 13.7249C7.95502 13.6554 8.2584 13.5523 8.61816 13.4677C8.53354 13.8275 8.43048 14.1308 8.36098 14.2016Z" fill="#3E63DD"/>
<path d="M4.76695 12.7917C4.49184 12.8373 3.5715 13.009 3.27816 13.3023C3.10163 13.4788 3.00439 13.7135 3.00439 13.9632C3.00439 14.2129 3.10163 14.4476 3.27816 14.6242C3.46037 14.8064 3.69971 14.8975 3.93909 14.8975C4.17846 14.8975 4.4178 14.8064 4.60001 14.6242C4.89332 14.3308 5.06501 13.4104 5.11064 13.1354C5.12642 13.0402 5.09531 12.9433 5.02715 12.8752C4.95894 12.8069 4.86197 12.7759 4.76695 12.7917ZM4.17738 14.2016C4.046 14.333 3.83211 14.333 3.70073 14.2016C3.63705 14.1379 3.602 14.0533 3.602 13.9632C3.602 13.8732 3.63705 13.7885 3.7007 13.7249C3.77143 13.6554 4.0748 13.5523 4.43459 13.4677C4.34997 13.8275 4.24691 14.1308 4.17738 14.2016Z" fill="#3E63DD"/>
<path d="M5.64756 3.25968C5.5232 3.15125 5.33444 3.16403 5.22598 3.28843C5.11751 3.41279 5.13036 3.60154 5.25472 3.71001C5.37511 3.81504 5.48725 3.93107 5.58804 4.05489C5.64711 4.12747 5.73317 4.16509 5.81997 4.16509C5.88625 4.16509 5.953 4.14313 6.00843 4.09801C6.13641 3.99385 6.15574 3.80563 6.05155 3.67765C5.92939 3.52759 5.79347 3.38697 5.64756 3.25968Z" fill="#3E63DD"/>
<path d="M10.9003 5.71551C10.7506 5.64604 10.5729 5.71115 10.5035 5.86085C10.4159 6.04972 10.3538 6.24962 10.3187 6.45502C10.291 6.61769 10.4004 6.77205 10.5631 6.79981C10.5801 6.80271 10.597 6.80411 10.6136 6.80411C10.7566 6.80411 10.883 6.70117 10.9078 6.55548C10.934 6.40228 10.9803 6.25315 11.0457 6.11232C11.1151 5.96259 11.05 5.78495 10.9003 5.71551Z" fill="#3E63DD"/>
</svg>
