<svg width="15" height="15" viewBox="0 0 15 15" fill="none" xmlns="http://www.w3.org/2000/svg">
<path d="M7.5 0C3.35478 0 0 3.3544 0 7.5C0 11.6452 3.3544 15 7.5 15C11.6452 15 15 11.6456 15 7.5C15 3.35476 11.6456 0 7.5 0ZM7.5 14.0217C3.90393 14.0217 0.978252 11.0961 0.978252 7.5C0.978252 3.9039 3.90393 0.978252 7.5 0.978252C11.0961 0.978252 14.0217 3.90393 14.0217 7.5C14.0217 11.0961 11.0961 14.0217 7.5 14.0217Z" fill="#3E63DD"/>
<path d="M7.50001 1.95653C4.43233 1.95653 1.95654 4.44544 1.95654 7.5C1.95654 8.92438 2.50943 10.3491 3.58021 11.4198C3.77122 11.6108 4.08092 11.6108 4.27193 11.4198L4.96366 10.7281C5.15468 10.5371 5.15468 10.2274 4.96366 10.0364C4.77268 9.84536 4.46298 9.84536 4.27193 10.0364L3.94448 10.3638C3.38078 9.66506 3.05362 8.83746 2.96301 7.98914H3.42396C3.69408 7.98914 3.91311 7.77014 3.91311 7.5C3.91311 7.22988 3.69411 7.01085 3.42396 7.01085H2.96327C3.05392 6.16256 3.38107 5.33513 3.94472 4.63634L4.27196 4.96356C4.46298 5.15457 4.77268 5.15457 4.96369 4.96356C5.15468 4.77257 5.15468 4.46285 4.96369 4.27183L4.6363 3.94444C5.31821 3.39354 6.13709 3.0551 7.01093 2.96299V3.42389C7.01093 3.69401 7.22992 3.91303 7.50007 3.91303C7.77019 3.91303 7.98921 3.69404 7.98921 3.42389V2.96302C8.86305 3.05513 9.6819 3.39363 10.3638 3.94447L8.25353 6.05478C8.02797 5.93671 7.77177 5.86954 7.50004 5.86954C6.60101 5.86954 5.86961 6.60096 5.86961 7.49997C5.86961 8.399 6.60104 9.1304 7.50004 9.1304C8.39907 9.1304 9.13047 8.39897 9.13047 7.49997C9.13047 7.22824 9.06329 6.97204 8.94522 6.74651L11.0554 4.63637C11.619 5.3351 11.9462 6.16256 12.0368 7.01088H11.5761C11.306 7.01088 11.0869 7.22988 11.0869 7.50002C11.0869 7.77014 11.3059 7.98916 11.5761 7.98916H12.037C11.9464 8.83749 11.6193 9.66512 11.0556 10.3639L10.7281 10.0364C10.5371 9.84541 10.2274 9.84541 10.0364 10.0364C9.84537 10.2274 9.84537 10.5371 10.0364 10.7281L10.7281 11.4199C10.9191 11.6109 11.2288 11.6109 11.4198 11.4199C12.4887 10.351 13.0435 8.92716 13.0435 7.5C13.0435 4.44377 10.5667 1.95653 7.50001 1.95653ZM7.50001 8.15217C7.14039 8.15217 6.84783 7.85961 6.84783 7.5C6.84783 7.14038 7.14039 6.84782 7.50001 6.84782C7.85963 6.84782 8.15219 7.14038 8.15219 7.5C8.15219 7.85961 7.85963 8.15217 7.50001 8.15217Z" fill="#3E63DD"/>
<path d="M7.9891 10.1087H7.01085C6.20173 10.1087 5.54346 10.767 5.54346 11.5761C5.54346 12.3852 6.20173 13.0435 7.01085 13.0435H7.9891C8.79822 13.0435 9.45649 12.3852 9.45649 11.5761C9.45649 10.767 8.79822 10.1087 7.9891 10.1087ZM7.9891 12.0652H7.01085C6.74114 12.0652 6.52171 11.8458 6.52171 11.5761C6.52171 11.3064 6.74114 11.0869 7.01085 11.0869H7.9891C8.25881 11.0869 8.47824 11.3064 8.47824 11.5761C8.47824 11.8458 8.25881 12.0652 7.9891 12.0652Z" fill="#3E63DD"/>
</svg>
