<svg width="15" height="15" viewBox="0 0 15 15" fill="none" xmlns="http://www.w3.org/2000/svg">
<path d="M9.03066 9.8334V1.251C9.03066 0.561179 8.46945 0 7.77966 0H7.22006C6.53027 0 5.96906 0.561179 5.96906 1.251V2.24342H5.45498C5.31599 2.24342 5.2033 2.35611 5.2033 2.4951C5.2033 2.63409 5.31599 2.74678 5.45498 2.74678H5.96906V3.52255H5.45498C5.31599 3.52255 5.2033 3.63524 5.2033 3.77422C5.2033 3.91321 5.31599 4.0259 5.45498 4.0259H5.96906V4.80167H5.45498C5.31599 4.80167 5.2033 4.91436 5.2033 5.05335C5.2033 5.19233 5.31599 5.30502 5.45498 5.30502H5.96906V6.08079H5.45498C5.31599 6.08079 5.2033 6.19348 5.2033 6.33247C5.2033 6.47146 5.31599 6.58414 5.45498 6.58414H5.96906V7.35991H5.45498C5.31599 7.35991 5.2033 7.4726 5.2033 7.61159C5.2033 7.75058 5.31599 7.86327 5.45498 7.86327H5.96906V9.83412C5.18203 10.3479 4.68994 11.2369 4.68994 12.1901C4.68994 13.7395 5.95047 15 7.49986 15C9.04925 15 10.3098 13.7395 10.3098 12.1901C10.3098 11.2262 9.81495 10.3439 9.03066 9.8334ZM7.49986 14.4966C6.22801 14.4966 5.1933 13.4619 5.1933 12.1901C5.1933 11.3049 5.71002 10.4869 6.5097 10.1063C6.63519 10.0465 6.68852 9.89632 6.62874 9.77083C6.59675 9.70357 6.53867 9.65732 6.47242 9.63782V1.251C6.47242 0.838748 6.80781 0.503356 7.22006 0.503356H7.77966C8.19191 0.503356 8.5273 0.838748 8.5273 1.251V9.5743C8.4972 9.56247 8.4669 9.55092 8.43623 9.54007C8.30523 9.49376 8.1614 9.56244 8.11509 9.69353C8.06878 9.82459 8.13749 9.96836 8.26855 10.0147C9.1884 10.3397 9.80643 11.2139 9.80643 12.1901C9.80643 13.4619 8.77172 14.4966 7.49986 14.4966ZM8.77253 12.179C8.77253 12.8757 8.20771 13.4405 7.51097 13.4405C6.81423 13.4405 6.2494 12.8757 6.2494 12.179C6.2494 11.636 6.59241 11.1733 7.07349 10.9954V3.66264H7.92624V10.9877C8.41889 11.1595 8.77253 11.6278 8.77253 12.179Z" fill="#3E63DD"/>
</svg>
