<svg width="15" height="15" viewBox="0 0 15 15" fill="none" xmlns="http://www.w3.org/2000/svg">
<path d="M12.5628 7.77516H0.307842C0.13779 7.77516 0 7.63733 0 7.46732C0 7.29731 0.13779 7.15948 0.307842 7.15948H12.5033C12.5225 7.1557 12.5424 7.15373 12.5628 7.15373C13.5672 7.15373 14.3843 6.33659 14.3843 5.33221C14.3843 4.32782 13.5672 3.51064 12.5628 3.51064C11.5584 3.51064 10.7413 4.32778 10.7413 5.33217C10.7413 5.50218 10.6035 5.64001 10.4334 5.64001C10.2634 5.64001 10.1256 5.50218 10.1256 5.33217C10.1256 3.98829 11.2189 2.89496 12.5628 2.89496C13.9067 2.89496 15 3.98829 15 5.33217C15 6.65482 13.941 7.73477 12.6264 7.76855C12.6059 7.7729 12.5846 7.77516 12.5628 7.77516Z" fill="#3E63DD"/>
<path d="M6.25055 5.64292H0.307842C0.13779 5.64292 0 5.50509 0 5.33507C0 5.16506 0.13779 5.02723 0.307842 5.02723H6.19103C6.21028 5.02346 6.23019 5.02149 6.25055 5.02149C7.25494 5.02149 8.07207 4.20435 8.07207 3.19996C8.07207 2.19558 7.25494 1.37844 6.25055 1.37844C5.24612 1.37844 4.42899 2.19558 4.42899 3.19996C4.42899 3.36997 4.2912 3.50781 4.12114 3.50781C3.95109 3.50781 3.8133 3.36997 3.8133 3.19996C3.8133 1.85609 4.90668 0.762756 6.25055 0.762756C7.59443 0.762756 8.68776 1.85609 8.68776 3.19996C8.68776 4.52262 7.62874 5.60257 6.31413 5.63635C6.29361 5.64062 6.27235 5.64292 6.25055 5.64292Z" fill="#3E63DD"/>
<path d="M10.0228 14.2373C8.67889 14.2373 7.58552 13.144 7.58552 11.8001C7.58552 11.6301 7.72331 11.4923 7.89336 11.4923C8.06341 11.4923 8.2012 11.6301 8.2012 11.8001C8.2012 12.8045 9.01834 13.6217 10.0228 13.6217C11.0272 13.6217 11.8443 12.8045 11.8443 11.8001C11.8443 10.7958 11.0272 9.97861 10.0228 9.97861H0.307842C0.13779 9.97861 0 9.84078 0 9.67077C0 9.50076 0.13779 9.36293 0.307842 9.36293H10.0228C11.3666 9.36293 12.46 10.4563 12.46 11.8001C12.46 13.144 11.3666 14.2373 10.0228 14.2373Z" fill="#3E63DD"/>
</svg>
