<svg width="15" height="15" viewBox="0 0 15 15" fill="none" xmlns="http://www.w3.org/2000/svg">
<path d="M5.24998 14.5H3.49999V1.454C3.7905 1.3505 4 1.07552 4 0.75C4 0.336504 3.6635 0 3.25 0C2.8365 0 2.5 0.336504 2.5 0.75C2.5 1.07549 2.7095 1.3505 3.00001 1.454V14.5H1.24999C1.112 14.5 1 14.612 1 14.75C1 14.8882 1.112 15 1.24999 15H5.24998C5.38797 15 5.49997 14.8882 5.49997 14.75C5.49997 14.612 5.38797 14.5 5.24998 14.5ZM3.24997 0.99999C3.11222 0.99999 2.99998 0.887988 2.99998 0.75C2.99998 0.612246 3.11222 0.50001 3.24997 0.50001C3.38772 0.50001 3.49996 0.612246 3.49996 0.75C3.49999 0.887988 3.38772 0.99999 3.24997 0.99999Z" fill="#3E63DD"/>
<path d="M11.75 4.5C11.888 4.5 12 4.38826 12 4.25001V3.25002C12 3.11203 11.888 3.00003 11.75 3.00003C11.612 3.00003 11.5 3.11203 11.5 3.25002V4.25001C11.5 4.38826 11.612 4.5 11.75 4.5Z" fill="#3E63DD"/>
<path d="M7.74999 5.25C7.88798 5.25 7.99998 5.13826 7.99998 5.00001V2.49999C7.99998 2.362 7.88798 2.25 7.74999 2.25C7.612 2.25 7.5 2.362 7.5 2.49999V4.99998C7.5 5.13826 7.612 5.25 7.74999 5.25Z" fill="#3E63DD"/>
<path d="M13.796 2.50423L5.79602 1.00423C5.784 1.00224 5.77202 1.00247 5.76001 1.00224C5.75652 1.00198 5.75351 0.999985 5.75002 0.999985C5.74803 0.999985 5.74653 1.00098 5.74478 1.00124C5.71577 1.00174 5.68776 1.00775 5.66102 1.01824C5.65501 1.02023 5.64977 1.02298 5.64402 1.02547C5.61854 1.03772 5.59401 1.05248 5.57354 1.07296L5.57304 1.07346L4.0733 2.5732C3.97557 2.67096 3.97557 2.82919 4.0733 2.92669C4.17106 3.02446 4.32906 3.02446 4.4268 2.92669L5.50006 1.85343V5.64644L4.4268 4.57324C4.32903 4.47574 4.17104 4.47574 4.0733 4.57324C3.97557 4.671 3.97557 4.82923 4.0733 4.92673L5.57304 6.42673C5.59604 6.44973 5.62355 6.46798 5.65404 6.48073C5.68431 6.49324 5.7168 6.49998 5.75005 6.49998C5.76531 6.49998 5.78081 6.49872 5.79605 6.49573L13.7961 4.99573C13.9143 4.97349 14 4.87048 14 4.74998V2.75C14 2.62974 13.9143 2.5265 13.796 2.50423ZM13.5 4.5425L6.00004 5.94875V1.55123L13.5 2.95748V4.5425Z" fill="#3E63DD"/>
<path d="M9.74999 4.87901C9.88798 4.87901 9.99998 4.76701 9.99998 4.62902V2.89075C9.99998 2.75276 9.88798 2.64076 9.74999 2.64076C9.612 2.64076 9.5 2.75276 9.5 2.89075V4.62899C9.5 4.76701 9.612 4.87901 9.74999 4.87901Z" fill="#3E63DD"/>
</svg>
